<?xml version="1.0" standalone="no"?>
<!DOCTYPE svg PUBLIC "-//W3C//DTD SVG 20010904//EN"
 "http://www.w3.org/TR/2001/REC-SVG-20010904/DTD/svg10.dtd">
<svg version="1.0" xmlns="http://www.w3.org/2000/svg"
 width="1168.000000pt" height="1704.000000pt" viewBox="0 0 1168.000000 1704.000000"
 preserveAspectRatio="xMidYMid meet">

<g transform="translate(0.000000,1704.000000) scale(0.100000,-0.100000)"
fill="#000000" stroke="none">
<path d="M8140 15945 c-30 -7 -69 -14 -87 -14 -18 -1 -42 -5 -55 -10 -13 -5
-43 -14 -68 -21 -103 -27 -251 -91 -338 -147 -29 -18 -56 -33 -61 -33 -5 0
-19 -11 -32 -25 -13 -13 -28 -25 -32 -25 -5 0 -14 -6 -22 -12 -7 -7 -28 -24
-46 -38 -45 -34 -239 -222 -239 -231 0 -4 -15 -23 -32 -42 -18 -18 -40 -44
-48 -57 -8 -13 -22 -31 -31 -40 -8 -9 -37 -52 -63 -96 -27 -43 -51 -81 -55
-84 -3 -3 -32 -57 -64 -120 -32 -63 -62 -122 -66 -130 -5 -8 -15 -31 -24 -50
-44 -96 -57 -130 -57 -144 0 -8 -4 -17 -9 -21 -5 -3 -13 -20 -16 -38 -4 -17
-16 -49 -25 -70 -10 -21 -22 -52 -26 -70 -3 -17 -10 -38 -14 -47 -9 -18 -27
-86 -41 -155 -6 -27 -15 -55 -19 -60 -14 -16 -61 -239 -81 -380 -5 -38 -14
-84 -19 -100 -6 -17 -14 -78 -19 -135 -6 -58 -15 -154 -21 -215 -12 -113 -9
-934 4 -985 4 -14 11 -83 16 -155 6 -71 15 -152 20 -180 5 -27 14 -86 20 -130
25 -195 62 -403 80 -449 6 -16 15 -54 20 -85 5 -31 14 -78 19 -106 6 -27 18
-84 27 -125 9 -41 23 -102 31 -135 21 -79 62 -296 83 -430 6 -38 15 -88 20
-111 5 -23 12 -72 15 -110 3 -38 12 -107 20 -154 8 -47 19 -157 25 -245 6 -88
13 -173 17 -190 11 -52 8 -1021 -5 -1155 -6 -69 -14 -181 -17 -250 -5 -114
-12 -191 -22 -230 -2 -8 -8 -60 -13 -115 -5 -55 -14 -116 -19 -135 -5 -19 -14
-69 -20 -110 -18 -131 -60 -359 -84 -455 -9 -33 -23 -96 -32 -140 -9 -44 -21
-98 -27 -120 -5 -22 -14 -65 -19 -95 -5 -30 -16 -72 -24 -93 -8 -20 -15 -48
-15 -61 0 -13 -6 -46 -14 -72 -8 -27 -19 -76 -26 -109 -18 -100 -37 -207 -49
-275 -6 -36 -15 -90 -21 -120 -46 -264 -47 -904 -1 -1120 6 -25 15 -70 20
-100 19 -102 47 -208 71 -265 5 -11 14 -37 20 -58 6 -20 16 -37 21 -37 5 0 9
-5 9 -11 0 -28 113 -239 133 -247 4 -2 7 -8 7 -14 0 -6 16 -30 35 -54 19 -23
35 -47 35 -53 0 -6 7 -11 15 -11 8 0 15 -5 15 -12 0 -13 0 -13 125 -140 53
-54 99 -98 102 -98 3 0 20 -12 38 -27 61 -53 75 -63 85 -63 5 0 13 -6 17 -14
4 -7 25 -21 46 -31 20 -9 37 -21 37 -25 0 -5 16 -14 35 -20 19 -6 35 -16 35
-21 0 -5 5 -9 11 -9 10 0 100 -40 182 -81 22 -10 47 -19 56 -19 9 0 21 -4 26
-8 27 -23 247 -68 411 -83 125 -11 177 -10 434 10 218 17 447 74 626 157 28
13 56 24 62 24 7 0 12 4 12 9 0 5 15 14 33 20 19 7 42 19 53 29 11 9 41 28 67
42 27 14 56 32 65 40 9 8 40 33 67 55 114 91 325 331 325 371 0 6 7 14 15 18
8 3 15 15 15 26 0 11 4 20 8 20 5 0 16 19 26 43 21 48 38 84 53 112 18 32 40
86 59 145 9 30 24 73 32 95 20 56 41 147 53 230 5 39 14 84 19 100 17 60 33
405 26 593 -10 302 -17 414 -26 457 -4 22 -11 81 -15 130 -3 50 -10 113 -15
140 -5 28 -14 91 -20 140 -5 50 -15 117 -20 150 -6 33 -18 112 -26 175 -8 63
-22 167 -30 230 -8 63 -19 151 -24 195 -5 44 -14 112 -20 150 -34 232 -37 818
-5 960 9 39 20 95 25 125 17 104 53 255 80 340 10 30 21 71 25 90 4 19 11 41
16 50 4 8 13 35 19 60 6 25 15 61 20 81 5 19 16 49 25 65 8 16 15 36 15 44 1
19 32 107 48 137 7 12 12 27 12 33 0 7 7 26 15 43 17 37 74 201 82 237 4 14
15 40 25 58 10 18 18 38 18 45 0 7 7 25 15 40 8 15 17 43 21 62 3 19 10 35 14
35 5 0 11 18 15 39 4 22 13 45 21 52 8 6 14 19 14 28 0 9 7 29 15 45 8 15 15
36 15 45 0 9 7 29 15 45 8 15 15 33 15 40 1 6 9 29 20 51 11 22 19 50 20 62 0
12 4 24 9 28 5 3 12 19 16 36 4 17 13 42 21 57 8 15 14 35 14 44 0 10 9 33 20
53 11 20 20 43 20 51 0 9 6 30 14 47 7 18 21 59 31 92 10 33 22 70 26 83 5 12
13 32 18 45 14 36 40 129 47 167 3 19 10 40 14 45 4 6 10 24 12 40 6 33 35
152 49 200 5 17 13 57 18 90 6 33 15 83 21 110 12 52 23 143 39 300 12 125 13
730 1 905 -19 272 -29 395 -40 460 -6 36 -15 106 -20 155 -6 50 -14 110 -19
135 -10 43 -15 74 -45 236 -7 38 -15 75 -19 81 -3 5 -11 34 -16 64 -12 69 -34
153 -53 204 -8 22 -23 67 -34 100 -10 33 -24 71 -31 85 -7 14 -13 32 -13 42 0
9 -9 33 -19 55 -11 21 -27 56 -36 78 -50 121 -146 316 -162 330 -6 6 -23 34
-38 63 -15 28 -31 52 -36 52 -5 0 -9 8 -9 18 0 9 -9 23 -20 30 -11 7 -20 18
-20 25 0 7 -13 27 -29 44 -16 18 -31 37 -33 42 -12 36 -335 361 -358 361 -4 0
-10 3 -12 8 -1 4 -28 26 -58 49 -30 24 -60 47 -66 52 -6 5 -38 23 -70 41 -32
17 -65 36 -74 43 -8 7 -34 22 -57 33 -24 10 -43 22 -43 27 0 4 -8 7 -17 7 -10
0 -33 9 -51 20 -18 11 -38 20 -45 20 -6 0 -24 6 -38 14 -14 7 -52 21 -85 31
-32 10 -63 22 -69 26 -5 4 -30 12 -55 18 -25 7 -54 16 -65 21 -11 5 -45 14
-75 19 -30 6 -75 15 -100 21 -172 41 -607 62 -720 35z m510 -236 c30 -6 85
-17 121 -25 37 -8 75 -14 85 -14 17 0 62 -12 214 -57 66 -20 219 -80 234 -92
6 -5 22 -12 36 -16 31 -10 184 -96 188 -107 2 -4 10 -8 18 -8 8 0 14 -4 14
-10 0 -5 4 -10 10 -10 10 0 81 -46 90 -58 3 -4 18 -16 35 -26 55 -36 189 -166
270 -261 28 -33 56 -66 62 -73 13 -13 79 -108 98 -140 21 -35 50 -77 56 -82 3
-3 18 -31 33 -62 15 -32 31 -60 37 -63 5 -4 9 -15 9 -25 0 -10 3 -20 8 -22 10
-4 60 -107 68 -140 3 -16 10 -28 15 -28 5 0 9 -10 9 -22 0 -13 9 -37 19 -54
10 -17 22 -45 26 -62 3 -18 11 -34 16 -37 5 -4 9 -15 9 -27 0 -11 6 -34 14
-51 17 -41 50 -163 76 -282 6 -27 15 -64 20 -80 6 -17 14 -57 19 -90 6 -33 15
-80 21 -105 28 -120 75 -528 84 -745 17 -368 17 -668 2 -885 -8 -124 -20 -250
-26 -280 -6 -30 -18 -85 -26 -121 -8 -37 -14 -79 -14 -93 0 -14 -4 -34 -9 -44
-5 -9 -14 -35 -19 -57 -6 -22 -17 -62 -25 -90 -8 -27 -18 -68 -22 -90 -4 -22
-10 -44 -15 -50 -4 -5 -11 -27 -14 -49 -4 -21 -13 -52 -21 -70 -7 -17 -20 -56
-29 -86 -30 -101 -58 -185 -65 -195 -4 -5 -18 -41 -30 -80 -12 -38 -29 -84
-37 -102 -8 -17 -14 -38 -14 -47 0 -8 -8 -30 -19 -49 -10 -18 -22 -48 -26 -65
-3 -18 -11 -34 -16 -37 -5 -4 -9 -16 -9 -29 0 -12 -7 -31 -15 -42 -8 -10 -15
-28 -15 -39 0 -11 -9 -38 -20 -60 -11 -22 -19 -47 -20 -56 0 -9 -6 -22 -14
-28 -7 -6 -16 -29 -20 -51 -3 -22 -11 -40 -16 -40 -6 0 -10 -10 -10 -22 0 -13
-6 -34 -13 -48 -7 -14 -23 -56 -36 -95 -12 -38 -29 -84 -37 -102 -8 -17 -14
-40 -14 -52 0 -12 -4 -21 -9 -21 -4 0 -16 -26 -26 -57 -10 -32 -21 -62 -26
-68 -5 -5 -9 -18 -9 -28 0 -10 -6 -33 -14 -50 -8 -18 -16 -41 -19 -52 -3 -11
-19 -58 -35 -105 -30 -85 -44 -131 -82 -270 -12 -41 -28 -97 -36 -124 -7 -26
-14 -61 -14 -77 0 -15 -4 -30 -9 -33 -5 -3 -12 -27 -15 -53 -4 -27 -15 -88
-25 -138 -41 -195 -46 -262 -45 -605 0 -184 3 -351 7 -370 4 -19 12 -82 17
-140 6 -58 15 -134 20 -170 5 -36 14 -105 19 -155 6 -49 14 -112 20 -140 10
-48 20 -126 41 -315 5 -47 14 -105 20 -130 6 -25 15 -88 20 -140 9 -94 19
-190 43 -410 16 -152 16 -682 0 -775 -7 -38 -17 -99 -22 -135 -16 -106 -29
-169 -45 -214 -8 -22 -24 -72 -35 -111 -26 -85 -139 -315 -163 -333 -10 -7
-18 -18 -18 -24 0 -25 -226 -278 -249 -278 -3 0 -18 -11 -33 -25 -15 -14 -30
-25 -33 -25 -3 0 -26 -15 -52 -34 -27 -18 -61 -40 -78 -48 -16 -8 -43 -23 -60
-32 -16 -9 -38 -16 -47 -16 -10 0 -18 -4 -18 -8 0 -5 -19 -15 -42 -22 -24 -8
-47 -16 -53 -20 -5 -4 -28 -11 -50 -18 -22 -6 -65 -18 -95 -27 -52 -14 -89
-21 -253 -45 -38 -5 -72 -12 -77 -15 -13 -8 -408 -8 -440 0 -45 10 -114 25
-170 36 -30 5 -73 16 -95 24 -22 7 -59 19 -82 26 -24 7 -43 16 -43 21 0 4 -6
8 -14 8 -27 0 -207 94 -214 112 -2 4 -8 8 -14 8 -10 0 -123 77 -150 102 -7 7
-32 29 -54 49 -39 34 -136 137 -179 190 -34 41 -105 148 -105 158 0 5 -6 16
-13 23 -17 17 -84 155 -93 190 -3 16 -10 28 -14 28 -5 0 -12 20 -16 45 -3 25
-10 48 -15 50 -4 3 -11 27 -14 53 -4 26 -10 56 -15 67 -34 83 -54 313 -54 620
0 288 13 463 49 645 9 47 23 117 31 155 22 118 32 168 44 220 6 28 18 84 27
125 9 41 20 89 25 105 6 17 16 59 23 95 8 36 21 97 30 135 19 83 38 180 59
293 9 46 22 113 30 150 32 148 58 331 77 537 5 66 16 158 23 205 8 47 15 146
16 220 1 74 3 149 5 165 2 17 6 181 8 365 5 404 -7 804 -28 960 -9 63 -20 158
-25 210 -21 210 -59 460 -90 580 -5 19 -13 62 -19 95 -6 33 -18 94 -27 135 -8
41 -19 96 -24 121 -5 25 -15 70 -24 99 -9 30 -16 66 -16 81 0 14 -6 42 -14 60
-7 19 -17 61 -21 94 -4 33 -10 65 -13 70 -4 6 -12 42 -18 80 -7 39 -17 102
-23 140 -6 39 -16 97 -22 130 -6 33 -15 103 -20 155 -5 52 -14 124 -19 160
-40 282 -40 1048 0 1290 5 30 13 93 19 140 6 47 16 98 21 114 6 16 10 42 10
58 0 16 9 68 21 116 11 48 29 122 39 164 10 42 23 85 28 95 5 10 13 36 17 58
4 22 11 45 15 50 5 6 13 29 19 50 5 22 19 65 31 95 12 30 24 64 27 75 3 11 16
45 30 75 24 54 35 80 47 110 3 8 10 22 16 30 5 8 15 26 20 40 6 14 19 39 30
55 10 17 31 55 46 85 15 30 33 59 40 63 8 4 14 15 14 23 0 8 5 20 10 27 39 46
50 61 50 68 0 4 10 18 23 31 12 13 33 38 47 57 14 18 43 53 65 77 22 24 45 49
51 56 6 7 32 31 59 53 26 22 54 47 63 55 16 15 20 19 118 84 33 21 71 47 86
57 15 11 32 19 38 19 5 0 27 9 47 20 21 11 44 20 51 20 7 0 23 6 35 14 38 25
238 69 342 76 123 9 331 3 405 -11z"/>
<path d="M3235 12944 c-44 -7 -120 -18 -170 -24 -49 -7 -97 -16 -105 -20 -8
-4 -39 -11 -68 -15 -29 -4 -76 -16 -105 -26 -28 -10 -59 -19 -67 -19 -9 0 -35
-9 -58 -20 -22 -11 -49 -20 -58 -20 -19 0 -72 -24 -239 -106 -127 -63 -118
-57 -252 -148 -57 -38 -103 -73 -103 -77 0 -4 -9 -10 -19 -14 -44 -14 -311
-292 -392 -409 -19 -28 -41 -58 -49 -67 -33 -38 -40 -49 -40 -58 0 -5 -6 -16
-12 -23 -18 -20 -32 -43 -76 -128 -66 -126 -79 -152 -112 -225 -17 -38 -40
-88 -50 -110 -10 -22 -29 -71 -41 -110 -12 -38 -26 -75 -31 -81 -4 -6 -12 -31
-17 -55 -15 -69 -33 -133 -41 -150 -5 -9 -12 -34 -15 -55 -4 -22 -15 -68 -25
-104 -32 -115 -39 -151 -70 -350 -7 -41 -19 -115 -27 -165 -8 -49 -19 -146
-24 -215 -4 -69 -13 -161 -19 -205 -13 -98 -18 -679 -9 -950 6 -188 25 -363
49 -465 6 -25 17 -74 24 -110 8 -36 21 -94 31 -130 9 -36 18 -78 21 -95 3 -16
9 -39 13 -50 5 -11 14 -33 20 -48 6 -15 11 -37 11 -48 0 -12 6 -35 14 -52 7
-18 30 -86 50 -152 21 -66 44 -136 50 -155 7 -19 18 -50 25 -67 6 -18 16 -48
22 -65 20 -56 41 -112 55 -145 8 -17 14 -40 14 -52 0 -12 5 -21 10 -21 6 0 10
-9 10 -19 0 -11 5 -23 10 -26 6 -3 10 -12 10 -20 0 -8 5 -26 12 -42 6 -15 23
-62 38 -103 15 -41 44 -120 64 -175 21 -55 41 -111 46 -125 4 -14 15 -38 24
-55 9 -16 16 -37 16 -45 0 -9 4 -20 9 -25 4 -6 20 -48 35 -94 15 -47 33 -98
41 -115 7 -17 24 -62 36 -101 12 -38 25 -74 29 -80 4 -5 10 -27 14 -47 4 -20
13 -50 21 -65 8 -15 15 -36 15 -45 0 -10 6 -32 14 -50 8 -18 22 -60 31 -93 9
-33 23 -80 30 -105 7 -25 22 -90 34 -145 13 -55 27 -114 32 -131 5 -17 14 -64
20 -105 6 -41 16 -103 22 -139 17 -92 16 -656 -1 -785 -8 -55 -16 -125 -18
-155 -3 -30 -10 -89 -15 -130 -6 -41 -14 -118 -19 -170 -6 -52 -14 -115 -19
-140 -5 -25 -12 -76 -16 -115 -3 -38 -10 -88 -16 -110 -9 -38 -13 -70 -39
-295 -6 -52 -17 -135 -25 -185 -8 -49 -17 -142 -21 -205 -3 -63 -10 -137 -15
-164 -5 -27 -9 -162 -9 -300 0 -252 16 -467 45 -586 7 -30 21 -91 30 -135 33
-153 113 -368 178 -480 39 -67 93 -150 99 -153 5 -2 8 -10 8 -18 0 -8 9 -22
20 -31 11 -10 20 -21 20 -25 0 -15 197 -215 232 -236 15 -9 28 -19 28 -23 0
-9 136 -99 148 -99 5 0 15 -6 21 -13 12 -15 99 -59 191 -97 30 -13 69 -29 85
-36 17 -7 53 -18 80 -24 28 -6 64 -17 82 -25 17 -8 60 -20 95 -25 34 -6 86
-15 113 -21 187 -37 632 -36 785 1 25 6 70 16 100 21 30 5 59 14 65 18 5 5 30
15 55 22 25 7 60 21 78 31 18 10 37 18 42 18 20 0 198 91 215 110 10 11 26 20
37 20 10 0 18 3 18 8 0 4 21 20 48 37 26 16 62 44 80 62 19 18 37 33 41 33 24
0 291 292 291 319 0 6 7 14 15 17 8 4 15 12 15 18 0 7 9 22 20 34 11 12 20 26
20 31 0 5 6 16 13 23 20 22 117 225 117 246 0 6 9 26 19 44 10 18 22 51 26 73
4 22 10 45 15 50 4 6 11 33 15 60 4 28 12 59 17 69 13 23 36 189 49 356 11
125 6 672 -6 720 -4 14 -13 72 -20 130 -7 58 -20 134 -29 170 -8 36 -22 110
-32 165 -9 55 -25 129 -35 165 -9 36 -20 89 -24 117 -4 29 -11 55 -16 59 -5 3
-9 20 -9 38 0 19 -6 56 -14 82 -8 27 -24 94 -35 149 -12 55 -28 128 -36 162
-8 34 -15 72 -15 86 0 13 -7 41 -15 60 -8 20 -15 49 -15 65 0 15 -7 53 -15 85
-14 56 -23 110 -45 277 -6 47 -15 111 -21 142 -10 58 -25 232 -35 403 -3 50
-9 122 -14 160 -10 78 -6 1201 4 1310 4 39 11 92 16 118 6 26 10 73 10 105 0
31 6 99 14 152 8 52 20 131 26 175 26 173 54 330 75 415 7 30 20 89 29 130 9
41 21 98 27 125 41 188 67 313 84 410 8 44 19 100 25 125 6 25 13 61 16 80 3
19 11 76 19 125 8 50 19 128 24 175 6 47 13 96 16 110 4 14 14 122 23 240 31
400 16 1105 -27 1250 -6 19 -15 71 -20 115 -16 126 -50 296 -63 310 -4 5 -8
24 -8 41 0 18 -5 45 -11 61 -6 15 -17 53 -24 83 -22 91 -36 144 -46 165 -4 11
-18 49 -29 85 -12 36 -28 77 -36 92 -8 14 -14 32 -14 38 0 7 -9 31 -19 54 -11
23 -27 59 -36 81 -37 90 -70 155 -77 155 -4 0 -8 6 -8 13 0 15 -42 101 -52
105 -5 2 -8 10 -8 17 0 8 -6 20 -13 27 -7 7 -26 36 -42 63 -16 28 -32 52 -35
55 -3 3 -26 37 -52 76 -62 93 -223 267 -322 349 -20 17 -48 40 -62 53 -14 12
-29 22 -34 22 -5 0 -15 6 -22 13 -20 19 -93 67 -102 67 -4 0 -20 9 -35 19 -15
11 -39 23 -54 26 -15 4 -27 10 -27 14 0 3 -15 12 -32 19 -18 7 -49 20 -68 29
-50 22 -149 48 -310 79 -109 22 -367 26 -475 8z m425 -239 c116 -17 192 -35
244 -58 22 -10 51 -20 65 -24 14 -3 51 -19 81 -36 30 -16 69 -37 85 -45 17 -9
32 -18 35 -22 3 -3 31 -24 64 -45 32 -21 74 -53 93 -72 20 -18 38 -33 40 -33
4 0 132 -133 168 -172 8 -10 15 -22 15 -26 0 -4 16 -25 35 -46 19 -21 35 -44
35 -51 0 -7 7 -15 15 -19 8 -3 15 -12 15 -20 0 -8 3 -16 8 -18 11 -5 58 -80
66 -106 4 -12 12 -22 17 -22 5 0 9 -9 9 -19 0 -11 5 -23 10 -26 9 -6 54 -96
107 -215 8 -19 23 -53 34 -75 22 -48 69 -180 76 -215 2 -14 9 -35 14 -47 26
-65 33 -88 65 -223 24 -99 43 -189 54 -255 6 -33 16 -80 21 -105 37 -156 58
-451 58 -805 0 -410 -22 -768 -55 -912 -8 -34 -14 -79 -14 -100 0 -22 -6 -63
-14 -93 -8 -30 -17 -80 -21 -110 -4 -30 -11 -71 -16 -91 -5 -19 -13 -62 -19
-95 -16 -98 -39 -207 -50 -244 -7 -19 -18 -66 -26 -105 -8 -38 -21 -101 -29
-140 -8 -38 -19 -98 -25 -131 -5 -34 -15 -75 -21 -90 -11 -29 -32 -151 -48
-274 -5 -36 -13 -92 -19 -125 -6 -33 -16 -105 -22 -160 -6 -55 -15 -135 -20
-179 -5 -43 -10 -119 -11 -170 -1 -50 -5 -118 -9 -151 -29 -217 -7 -1371 30
-1580 6 -33 15 -103 20 -155 19 -192 61 -464 79 -515 6 -16 15 -57 21 -90 14
-88 63 -326 81 -390 21 -80 65 -286 80 -375 6 -36 15 -70 19 -75 5 -6 12 -39
16 -75 4 -36 11 -76 16 -90 20 -52 62 -365 78 -575 7 -98 3 -425 -5 -455 -3
-8 -11 -71 -20 -140 -19 -158 -42 -281 -55 -294 -5 -5 -10 -19 -10 -30 0 -11
-10 -45 -21 -76 -12 -30 -25 -64 -29 -75 -15 -39 -74 -160 -81 -165 -3 -3 -9
-15 -13 -27 -4 -13 -11 -23 -16 -23 -4 0 -11 -8 -14 -18 -9 -25 -28 -54 -51
-78 -11 -12 -31 -36 -45 -55 -76 -100 -152 -175 -265 -258 -33 -25 -61 -48
-63 -53 -2 -4 -8 -8 -14 -8 -5 0 -22 -9 -37 -19 -15 -11 -74 -43 -132 -71 -57
-28 -111 -55 -120 -60 -9 -5 -34 -12 -55 -16 -22 -3 -43 -10 -49 -14 -26 -17
-132 -39 -295 -60 -167 -22 -538 4 -695 50 -22 6 -60 15 -85 20 -51 10 -128
40 -242 94 -42 20 -79 36 -82 36 -6 0 -98 61 -106 70 -3 3 -18 14 -35 24 -33
21 -32 21 -94 74 -25 20 -49 43 -55 50 -6 7 -29 32 -51 56 -22 24 -47 54 -55
66 -22 34 -64 85 -72 88 -5 2 -8 8 -8 12 0 5 -13 31 -29 58 -16 27 -32 60 -36
73 -4 13 -11 26 -14 29 -6 4 -27 58 -66 160 -7 19 -19 55 -26 80 -7 25 -16 50
-20 55 -3 6 -9 26 -12 45 -3 19 -10 55 -15 80 -26 117 -36 196 -42 330 -9 177
-3 549 11 685 6 55 14 144 19 197 10 116 24 217 59 428 12 72 28 194 41 315 5
44 14 107 20 140 13 80 28 216 60 565 13 136 13 549 0 637 -5 38 -14 102 -20
143 -12 92 -34 218 -50 285 -30 129 -44 184 -60 235 -9 30 -25 82 -35 115 -10
33 -24 77 -31 98 -8 20 -14 44 -14 53 0 8 -9 34 -20 56 -11 23 -20 49 -20 57
0 9 -7 29 -15 45 -8 15 -15 36 -15 45 0 9 -7 29 -15 45 -8 15 -15 36 -15 45
-1 9 -9 34 -20 56 -11 22 -19 48 -20 57 0 9 -4 19 -9 22 -5 4 -12 24 -16 45
-4 22 -13 45 -21 52 -8 6 -14 20 -14 31 0 10 -9 36 -20 58 -11 22 -20 47 -20
57 0 10 -7 27 -15 37 -8 11 -15 30 -15 42 0 13 -4 25 -9 29 -5 3 -13 20 -17
37 -3 18 -10 39 -14 48 -21 40 -40 90 -40 103 0 9 -4 19 -10 22 -5 3 -10 14
-10 23 0 9 -7 30 -15 46 -8 15 -15 33 -15 40 0 6 -7 24 -16 41 -16 31 -47 119
-116 325 -22 69 -47 139 -55 157 -7 17 -13 38 -13 47 0 9 -8 35 -19 59 -10 23
-23 62 -30 87 -7 25 -17 61 -22 80 -6 19 -17 60 -24 90 -7 30 -19 71 -25 90
-20 60 -66 294 -80 410 -58 464 -18 1430 77 1855 19 87 42 199 50 245 3 19 9
40 13 45 4 6 11 30 15 55 4 24 16 64 26 88 11 24 19 51 19 60 0 9 7 30 15 46
8 15 15 35 15 43 0 8 6 29 14 46 7 18 23 59 35 92 13 33 29 74 36 90 7 17 18
41 24 55 6 14 15 37 21 53 5 15 14 27 19 27 5 0 12 13 16 29 3 16 13 35 21 42
8 6 14 19 14 29 0 10 7 23 15 30 8 7 15 18 15 25 0 8 3 15 8 17 4 2 30 39 57
83 54 88 54 88 87 127 13 15 37 43 53 64 67 83 237 246 311 299 15 11 42 32
60 48 17 15 39 27 48 27 9 0 16 4 16 9 0 5 17 17 38 26 20 10 39 21 42 25 3 4
19 13 35 21 17 9 39 20 50 26 20 11 117 55 165 75 14 6 33 14 42 19 10 5 25 9
33 9 8 0 23 4 33 10 26 14 110 40 132 40 10 0 21 4 24 9 6 9 15 12 151 36 253
46 464 56 635 30z"/>
</g>
</svg>
